<?xml version="1.0" standalone="no"?>
<!DOCTYPE svg PUBLIC "-//W3C//DTD SVG 20010904//EN"
 "http://www.w3.org/TR/2001/REC-SVG-20010904/DTD/svg10.dtd">
<svg version="1.0" xmlns="http://www.w3.org/2000/svg"
 width="800.000000pt" height="800.000000pt" viewBox="0 0 800.000000 800.000000"
 preserveAspectRatio="xMidYMid meet">
<metadata>
Created by potrace 1.14, written by Peter Selinger 2001-2017
</metadata>
<g transform="translate(0.000000,800.000000) scale(0.100000,-0.100000)"
fill="#000000" stroke="none">
<path d="M0 4000 l0 -4000 4000 0 4000 0 0 4000 0 4000 -4000 0 -4000 0 0
-4000z m3343 1956 c59 -29 107 -71 142 -124 13 -21 94 -226 181 -457 86 -231
160 -429 164 -440 7 -16 22 8 76 123 l68 142 427 0 427 0 6 -26 c10 -38 50
-97 88 -129 123 -104 301 -103 418 2 135 121 147 313 28 447 -22 26 -64 59
-92 74 -45 24 -62 27 -146 27 -87 0 -100 -3 -149 -30 -62 -34 -113 -90 -138
-151 l-18 -44 -384 0 c-302 0 -382 3 -378 13 3 6 45 97 93 201 101 216 147
276 242 323 l57 28 430 0 c414 -1 433 -2 510 -23 234 -65 373 -190 431 -387
23 -79 23 -237 1 -324 -35 -132 -115 -234 -224 -285 l-60 -29 70 -35 c128 -64
222 -185 258 -332 19 -79 15 -239 -10 -332 -61 -235 -220 -388 -476 -460 -79
-22 -88 -22 -853 -26 -855 -3 -831 -5 -928 60 -76 52 -104 99 -181 304 -39
104 -74 197 -78 207 -7 16 33 17 753 17 l760 0 26 -54 c29 -60 83 -113 148
-148 63 -34 202 -33 272 1 148 73 216 242 162 401 -26 76 -110 160 -186 186
-161 55 -329 -14 -399 -165 l-24 -51 -792 0 -791 0 -53 145 c-30 80 -57 145
-60 145 -3 -1 -96 -195 -206 -433 -110 -238 -213 -452 -230 -476 -110 -163
-360 -185 -513 -46 -78 70 -121 200 -102 304 7 37 140 335 398 890 409 881
416 895 508 952 92 56 230 63 327 15z m1867 -543 c42 -25 63 -63 68 -120 4
-45 0 -59 -21 -92 -49 -74 -151 -90 -217 -34 -78 65 -81 162 -7 231 46 43 120
49 177 15z m38 -910 c92 -69 93 -190 3 -250 -25 -17 -48 -23 -89 -23 -51 0
-57 3 -98 44 -41 41 -44 47 -44 98 0 66 27 114 80 141 43 22 111 18 148 -10z
m-1853 -1322 c50 -22 108 -86 126 -137 19 -55 16 -162 -5 -217 -22 -58 -90
-120 -151 -137 -27 -8 -73 -11 -114 -8 -147 11 -232 107 -231 262 2 162 97
256 260 256 51 0 88 -6 115 -19z m2480 8 c52 -14 126 -90 143 -145 19 -65 15
-172 -9 -224 -45 -100 -106 -135 -234 -135 -73 0 -98 4 -130 22 -85 45 -124
119 -125 233 0 121 56 212 152 247 42 15 151 16 203 2z m-5238 -161 l88 -163
3 163 2 162 65 0 65 0 0 -250 0 -251 -86 3 -86 3 -89 160 -89 160 0 -162 0
-163 -65 0 -65 0 0 250 0 250 84 0 84 0 89 -162z m699 -71 c46 -125 86 -237
89 -248 6 -19 3 -20 -66 -17 l-73 3 -20 63 -20 63 -79 -3 -79 -3 -20 -62 -19
-63 -69 0 c-39 0 -70 2 -70 4 0 8 170 477 176 488 3 5 42 7 87 6 l81 -3 82
-228z m524 183 l0 -50 -126 0 -125 0 3 -47 3 -48 118 -3 117 -3 0 -49 0 -50
-120 0 -120 0 0 -50 0 -50 130 0 130 0 0 -50 0 -50 -195 0 -195 0 0 250 0 250
190 0 190 0 0 -50z m220 -145 l0 -195 130 0 130 0 0 -55 0 -55 -195 0 -195 0
0 250 0 250 65 0 65 0 0 -195z m785 181 c71 -30 99 -133 50 -181 -13 -14 -29
-25 -36 -25 -7 0 3 -10 22 -23 41 -27 59 -60 59 -107 0 -52 -31 -101 -80 -127
-39 -21 -56 -23 -192 -23 l-148 0 0 250 0 250 145 0 c104 0 155 -4 180 -14z
m875 -165 c0 -165 2 -180 21 -205 17 -22 28 -26 69 -26 38 0 54 5 70 22 19 20
20 34 20 205 l0 183 71 0 71 0 -4 -194 c-4 -189 -4 -194 -30 -233 -36 -55 -85
-77 -186 -81 -73 -4 -89 -1 -135 22 -38 18 -59 37 -75 65 -21 36 -22 52 -22
230 l0 191 65 0 65 0 0 -179z m530 -16 l0 -195 130 0 130 0 0 -55 0 -55 -195
0 -195 0 0 250 0 250 65 0 65 0 0 -195z m712 -50 c48 -132 87 -244 87 -248 1
-4 -31 -7 -71 -5 l-72 3 -20 63 -20 62 -77 0 -77 0 -22 -65 -22 -65 -69 0
c-38 0 -69 2 -69 4 0 7 171 480 177 489 2 4 41 6 86 5 l81 -3 88 -240z m217
148 l49 -98 48 98 49 97 72 0 72 0 -90 -156 -89 -156 0 -94 0 -94 -65 0 -65 0
0 95 0 96 -85 148 c-47 81 -85 151 -85 155 0 3 31 6 70 6 l70 0 49 -97z m1041
-85 c0 -173 1 -183 22 -205 32 -35 109 -33 137 3 19 25 21 40 21 205 l0 179
65 0 65 0 0 -190 c0 -232 -7 -252 -94 -295 -50 -24 -64 -27 -138 -23 -186 8
-218 61 -218 361 l0 147 70 0 70 0 0 -182z m656 20 l89 -162 3 162 2 162 65 0
65 0 0 -250 0 -251 -86 3 -86 3 -87 157 -86 156 -3 -159 -2 -159 -65 0 -65 0
0 250 0 250 84 0 84 0 88 -162z m704 112 l0 -50 -126 0 -125 0 3 -47 3 -48
118 -3 117 -3 0 -49 0 -50 -121 0 -120 0 3 -47 3 -48 128 -3 127 -3 0 -49 0
-50 -195 0 -195 0 0 250 0 250 190 0 190 0 0 -50z m-4145 -743 c60 -34 89 -94
89 -182 0 -91 -32 -153 -97 -184 -133 -64 -257 24 -257 183 0 76 11 110 48
150 56 59 146 73 217 33z m-1666 -16 c44 -32 71 -92 71 -163 0 -68 -12 -103
-48 -141 -45 -48 -73 -57 -172 -57 l-90 0 0 196 0 196 103 -4 c89 -3 106 -6
136 -27z m391 19 c0 -6 -43 -10 -110 -10 l-110 0 0 -80 0 -80 105 0 c137 0
139 -18 3 -22 l-103 -3 -3 -82 -3 -83 116 0 c70 0 115 -4 115 -10 0 -6 -48
-10 -125 -10 l-125 0 0 195 0 195 120 0 c73 0 120 -4 120 -10z m94 -57 c14
-38 45 -122 69 -187 l44 -119 30 79 c16 43 47 127 69 186 21 60 45 108 52 108
6 0 12 -1 12 -2 0 -2 -33 -88 -73 -193 -57 -151 -76 -190 -91 -190 -14 0 -32
38 -87 184 -72 192 -75 201 -60 201 5 0 21 -30 35 -67z m571 57 c-3 -6 -52
-10 -111 -10 l-104 0 0 -80 0 -80 100 0 c60 0 100 -4 100 -10 0 -6 -40 -10
-100 -10 l-100 0 0 -85 0 -85 110 0 c67 0 110 -4 110 -10 0 -6 -48 -10 -125
-10 l-125 0 0 195 0 195 126 0 c81 0 123 -4 119 -10z m105 -175 l0 -185 115 0
c70 0 115 -4 115 -10 0 -6 -48 -10 -125 -10 l-125 0 0 195 c0 123 4 195 10
195 6 0 10 -68 10 -185z m896 152 c32 -38 34 -113 3 -146 -30 -31 -61 -41
-135 -41 l-64 0 0 -85 c0 -69 -3 -85 -15 -85 -13 0 -15 28 -15 196 l0 196 101
-4 c96 -3 102 -4 125 -31z m310 0 c36 -42 33 -106 -5 -149 -28 -31 -33 -33
-110 -36 l-81 -4 0 -84 c0 -68 -3 -84 -15 -84 -13 0 -15 28 -15 196 l0 196
101 -4 c96 -3 102 -4 125 -31z m329 23 c-3 -6 -52 -10 -111 -10 l-104 0 0 -80
0 -80 99 0 c56 0 103 -4 106 -10 4 -6 -32 -10 -99 -10 l-106 0 0 -85 0 -85
110 0 c67 0 110 -4 110 -10 0 -6 -48 -10 -125 -10 l-125 0 0 195 0 195 126 0
c81 0 123 -4 119 -10z m105 -151 l0 -161 29 -29 c42 -41 107 -41 153 0 l33 29
3 161 c2 89 8 161 13 161 16 0 11 -296 -6 -336 -27 -66 -154 -87 -210 -34 -36
34 -45 79 -45 233 0 115 2 137 15 137 13 0 15 -25 15 -161z m541 146 c57 -30
65 -101 17 -149 l-33 -33 21 -31 c12 -17 24 -52 27 -79 3 -26 9 -56 13 -67 5
-14 3 -17 -7 -14 -8 3 -19 32 -27 68 -18 91 -30 106 -94 113 -105 13 -98 20
-98 -88 0 -78 -3 -95 -15 -95 -13 0 -15 28 -15 195 l0 195 90 0 c63 0 100 -5
121 -15z m264 -163 c23 -95 44 -175 47 -177 3 -3 19 48 37 113 57 202 71 242
86 242 14 0 20 -17 77 -227 18 -68 35 -123 38 -123 3 0 25 75 49 168 41 157
54 192 66 181 2 -3 -19 -91 -48 -197 -39 -147 -55 -192 -67 -192 -12 0 -28 43
-65 178 -26 97 -49 178 -50 180 -1 1 -26 -79 -55 -178 -41 -137 -57 -180 -69
-180 -13 0 -26 39 -61 178 -55 216 -55 215 -40 210 7 -2 31 -81 55 -176z m705
168 c0 -6 -43 -10 -110 -10 l-110 0 0 -80 0 -80 99 0 c56 0 103 -4 106 -10 4
-6 -32 -10 -99 -10 l-106 0 0 -85 0 -85 115 0 c70 0 115 -4 115 -10 0 -6 -48
-10 -125 -10 l-125 0 0 195 0 195 120 0 c73 0 120 -4 120 -10z m307 -24 c34
-40 28 -100 -14 -133 -15 -13 -22 -23 -15 -23 7 0 24 -11 37 -25 19 -18 25
-35 25 -65 0 -86 -37 -110 -170 -110 l-90 0 0 196 0 196 101 -4 c97 -3 102 -4
126 -32z"/>
<path d="M3245 3103 c-55 -14 -88 -75 -88 -163 0 -108 40 -160 123 -160 76 0
120 60 120 162 -1 116 -65 183 -155 161z"/>
<path d="M5745 3103 c-67 -16 -108 -119 -86 -218 16 -71 54 -105 116 -105 84
0 133 75 122 187 -7 65 -31 108 -73 128 -33 15 -44 16 -79 8z"/>
<path d="M1143 2992 l-20 -67 39 -3 c22 -2 42 -1 45 1 6 7 -28 126 -37 132 -4
2 -16 -26 -27 -63z"/>
<path d="M2670 3045 l0 -45 53 0 c57 0 77 12 77 45 0 33 -20 45 -77 45 l-53 0
0 -45z"/>
<path d="M2670 2845 l0 -55 58 0 c64 0 92 18 92 57 0 35 -31 53 -93 53 l-57 0
0 -55z"/>
<path d="M4786 3002 c-22 -81 -22 -82 24 -82 22 0 40 4 40 8 0 16 -32 117 -39
125 -5 4 -15 -18 -25 -51z"/>
<path d="M3291 2378 c-55 -37 -76 -82 -76 -163 0 -111 49 -174 142 -182 39 -4
55 0 82 19 56 38 75 71 79 142 5 80 -9 123 -53 166 -28 27 -44 34 -87 38 -44
3 -59 0 -87 -20z"/>
<path d="M1570 2216 l0 -176 78 0 c59 0 84 5 110 20 93 57 107 212 26 291 -34
33 -38 34 -125 37 l-89 4 0 -176z"/>
<path d="M3650 2300 l0 -92 76 4 c69 3 79 6 100 31 29 34 31 86 5 118 -17 21
-30 24 -100 27 l-81 4 0 -92z"/>
<path d="M3960 2300 l0 -92 76 4 c69 3 78 6 101 33 21 23 24 36 20 68 -8 60
-25 71 -117 75 l-80 4 0 -92z"/>
<path d="M4950 2310 l0 -80 80 0 c95 0 120 16 120 78 0 65 -27 82 -129 82
l-71 0 0 -80z"/>
<path d="M6202 2313 l3 -78 73 1 c96 2 122 18 122 79 0 62 -22 75 -123 75
l-78 0 3 -77z"/>
<path d="M6200 2125 l0 -85 76 0 c105 0 143 23 144 88 0 22 -8 41 -25 57 -22
23 -32 25 -110 25 l-85 0 0 -85z"/>
</g>
</svg>
